<svg width="209" height="133" viewBox="0 0 209 133" fill="none" xmlns="http://www.w3.org/2000/svg">
<g clip-path="url(#clip0_209_12)">
<circle cx="66.5" cy="66.5" r="66.5" fill="white"/>
<circle cx="66.5" cy="66.5" r="64.5" stroke="black" stroke-opacity="0.3" stroke-width="4"/>
<path fill-rule="evenodd" clip-rule="evenodd" d="M67 23.9031L104.323 45.4515V88.5484L67 110.097L29.677 88.5484V45.4515L67 23.9031ZM33.8647 47.8693V79.5251L61.2795 32.0414L33.8647 47.8693ZM67 30.5086L35.3975 85.2457H98.6025L67 30.5086ZM94.4148 89.4334H39.5852L67 105.261L94.4148 89.4334ZM100.135 79.5251L72.7205 32.0414L100.135 47.8693V79.5251Z" fill="#E10098"/>
<path d="M67 35.1409C71.8711 35.1409 75.82 31.192 75.82 26.3209C75.82 21.4497 71.8711 17.5009 67 17.5009C62.1288 17.5009 58.18 21.4497 58.18 26.3209C58.18 31.192 62.1288 35.1409 67 35.1409Z" fill="#E10098"/>
<path d="M102.229 55.4805C107.1 55.4805 111.049 51.5317 111.049 46.6605C111.049 41.7894 107.1 37.8405 102.229 37.8405C97.3581 37.8405 93.4092 41.7894 93.4092 46.6605C93.4092 51.5317 97.3581 55.4805 102.229 55.4805Z" fill="#E10098"/>
<path d="M102.229 96.1596C107.1 96.1596 111.049 92.2107 111.049 87.3396C111.049 82.4684 107.1 78.5196 102.229 78.5196C97.3581 78.5196 93.4092 82.4684 93.4092 87.3396C93.4092 92.2107 97.3581 96.1596 102.229 96.1596Z" fill="#E10098"/>
<path d="M67 116.499C71.8711 116.499 75.82 112.55 75.82 107.679C75.82 102.808 71.8711 98.8591 67 98.8591C62.1288 98.8591 58.18 102.808 58.18 107.679C58.18 112.55 62.1288 116.499 67 116.499Z" fill="#E10098"/>
<path d="M31.7659 96.1596C36.637 96.1596 40.5859 92.2107 40.5859 87.3396C40.5859 82.4684 36.637 78.5196 31.7659 78.5196C26.8947 78.5196 22.9459 82.4684 22.9459 87.3396C22.9459 92.2107 26.8947 96.1596 31.7659 96.1596Z" fill="#E10098"/>
<path d="M31.7659 55.4805C36.637 55.4805 40.5859 51.5317 40.5859 46.6605C40.5859 41.7894 36.637 37.8405 31.7659 37.8405C26.8947 37.8405 22.9459 41.7894 22.9459 46.6605C22.9459 51.5317 26.8947 55.4805 31.7659 55.4805Z" fill="#E10098"/>
<circle cx="139.5" cy="66.5" r="66.5" fill="white"/>
<circle cx="139.5" cy="66.5" r="64.5" stroke="black" stroke-opacity="0.3" stroke-width="4"/>
<path d="M144.711 115.25C140.544 115.25 137.003 114.417 134.086 112.75C131.253 111.167 129.044 109.042 127.461 106.375C125.961 103.708 125.211 100.833 125.211 97.75C125.211 96 125.419 94.1667 125.836 92.25C126.336 90.4167 126.878 88.8333 127.461 87.5C123.794 86.8333 120.378 85.2917 117.211 82.875C114.044 80.375 111.461 77.0833 109.461 73C107.461 68.9167 106.461 64.2083 106.461 58.875C106.461 53.7083 107.336 48.9583 109.086 44.625C110.919 40.2083 113.461 36.375 116.711 33.125C119.961 29.875 123.753 27.3333 128.086 25.5C132.503 23.6667 137.294 22.75 142.461 22.75C149.211 22.75 154.878 24.0417 159.461 26.625C164.044 29.125 167.544 32.625 169.961 37.125C172.378 41.625 173.586 46.8333 173.586 52.75C173.586 53.9167 173.503 55.125 173.336 56.375C173.253 57.5417 173.128 58.75 172.961 60L167.711 93C166.961 97.75 165.544 101.792 163.461 105.125C161.378 108.458 158.753 110.958 155.586 112.625C152.419 114.375 148.794 115.25 144.711 115.25ZM144.836 103.125C147.419 103.125 149.336 102.25 150.586 100.5C151.919 98.8333 152.794 96.5833 153.211 93.75L156.836 70.875C155.336 72.0417 153.753 73.3333 152.086 74.75C150.419 76.0833 148.794 77.5833 147.211 79.25C145.711 80.8333 144.336 82.5417 143.086 84.375C141.836 86.125 140.794 87.9583 139.961 89.875C139.211 91.7917 138.836 93.75 138.836 95.75C138.836 97.8333 139.294 99.5833 140.211 101C141.211 102.417 142.753 103.125 144.836 103.125ZM134.461 76.125C136.961 73.125 140.169 70.1667 144.086 67.25C148.086 64.25 152.961 61.5 158.711 59L159.211 55.75C159.294 55 159.336 54.3333 159.336 53.75C159.419 53.0833 159.461 52.4167 159.461 51.75C159.461 48.25 158.753 45.25 157.336 42.75C155.919 40.25 153.878 38.3333 151.211 37C148.628 35.6667 145.544 35 141.961 35C137.878 35 134.253 36.0417 131.086 38.125C128.003 40.125 125.544 42.9167 123.711 46.5C121.961 50 121.086 54.0417 121.086 58.625C121.086 61.9583 121.586 64.875 122.586 67.375C123.669 69.7917 125.211 71.75 127.211 73.25C129.211 74.75 131.628 75.7083 134.461 76.125Z" fill="#3230DF"/>
</g>
<defs>
<clipPath id="clip0_209_12">
<rect width="209" height="133" fill="white"/>
</clipPath>
</defs>
</svg>
